<svg xmlns="http://www.w3.org/2000/svg" viewBox="0 0 1200 760" role="img" aria-labelledby="title desc">
  <title id="title">eundo.today portfolio public screen preview</title>
  <desc id="desc">A public-safe preview of the portfolio site structure, dynamic homepage, project hub, and Netlify deployment flow.</desc>
  <rect width="1200" height="760" fill="#F7F1E4"/>
  <rect x="70" y="70" width="1060" height="620" rx="8" fill="#FFFDF7" stroke="#D8CFBD"/>
  <rect x="70" y="70" width="1060" height="62" rx="8" fill="#191715"/>
  <text x="104" y="109" fill="#FFF6E7" font-family="Pretendard, Arial, sans-serif" font-size="22" font-weight="850">eundo.today</text>
  <text x="760" y="109" fill="#C8BDA9" font-family="Pretendard, Arial, sans-serif" font-size="16" font-weight="800">About Me · Case Studies · Projects · Notes</text>

  <rect x="104" y="168" width="480" height="260" rx="8" fill="#191715"/>
  <text x="136" y="224" fill="#FFB238" font-family="Pretendard, Arial, sans-serif" font-size="18" font-weight="850">EUNDO.TODAY PORTFOLIO</text>
  <text x="136" y="298" fill="#FFF6E7" font-family="Pretendard, Arial, sans-serif" font-size="58" font-weight="900">박은도</text>
  <rect x="136" y="340" width="116" height="42" rx="8" fill="#315CFF"/>
  <text x="166" y="367" fill="#FFFFFF" font-family="Pretendard, Arial, sans-serif" font-size="16" font-weight="850">경력 보기</text>
  <rect x="268" y="340" width="128" height="42" rx="8" fill="#25221D" stroke="#D8CFBD"/>
  <text x="304" y="367" fill="#FFF6E7" font-family="Pretendard, Arial, sans-serif" font-size="16" font-weight="850">사례 보기</text>

  <rect x="628" y="168" width="398" height="260" rx="8" fill="#FFFDF7" stroke="#D8CFBD"/>
  <text x="662" y="212" fill="#191715" font-family="Pretendard, Arial, sans-serif" font-size="24" font-weight="850">Dynamic Homepage</text>
  <rect x="662" y="250" width="320" height="34" rx="8" fill="#E7EBFF"/>
  <rect x="662" y="304" width="240" height="34" rx="8" fill="#FFF0C7"/>
  <rect x="662" y="358" width="278" height="34" rx="8" fill="#FFE0D8"/>

  <rect x="104" y="470" width="276" height="148" rx="8" fill="#FFFDF7" stroke="#D8CFBD"/>
  <text x="132" y="514" fill="#315CFF" font-family="Pretendard, Arial, sans-serif" font-size="16" font-weight="850">PRODUCT LAB</text>
  <text x="132" y="552" fill="#191715" font-family="Pretendard, Arial, sans-serif" font-size="21" font-weight="850">개인 도구 실험</text>
  <text x="132" y="586" fill="#655F54" font-family="Pretendard, Arial, sans-serif" font-size="15" font-weight="700">화면과 흐름 중심 공개</text>

  <rect x="424" y="470" width="276" height="148" rx="8" fill="#FFFDF7" stroke="#D8CFBD"/>
  <text x="452" y="514" fill="#FF6A4A" font-family="Pretendard, Arial, sans-serif" font-size="16" font-weight="850">CASE STUDIES</text>
  <text x="452" y="552" fill="#191715" font-family="Pretendard, Arial, sans-serif" font-size="21" font-weight="850">실무 사례 우선</text>
  <text x="452" y="586" fill="#655F54" font-family="Pretendard, Arial, sans-serif" font-size="15" font-weight="700">문제, 역할, 판단을 정리</text>

  <rect x="744" y="470" width="282" height="148" rx="8" fill="#191715"/>
  <text x="772" y="514" fill="#FFB238" font-family="Pretendard, Arial, sans-serif" font-size="16" font-weight="850">DEPLOY</text>
  <text x="772" y="552" fill="#FFF6E7" font-family="Pretendard, Arial, sans-serif" font-size="21" font-weight="850">GitHub push → Netlify</text>
  <text x="772" y="586" fill="#C8BDA9" font-family="Pretendard, Arial, sans-serif" font-size="15" font-weight="700">정적 빌드와 배포 흐름 자동화</text>
</svg>
