<svg xmlns="http://www.w3.org/2000/svg" viewBox="0 0 1200 760" role="img" aria-labelledby="title desc">
  <title id="title">Reread Bookshelf public screen preview</title>
  <desc id="desc">A public-safe mobile web app mockup showing book records, memory tags, search filters, and local-first backup.</desc>
  <rect width="1200" height="760" fill="#F7F1E4"/>
  <rect x="90" y="46" width="360" height="668" rx="36" fill="#191715"/>
  <rect x="114" y="88" width="312" height="586" rx="24" fill="#FFFDF7"/>
  <text x="140" y="136" fill="#191715" font-family="Pretendard, Arial, sans-serif" font-size="24" font-weight="850">재탕 책장</text>
  <rect x="140" y="160" width="256" height="42" rx="8" fill="#F1E8D7" stroke="#D8CFBD"/>
  <text x="162" y="187" fill="#655F54" font-family="Pretendard, Arial, sans-serif" font-size="15" font-weight="700">인물, 장면, 분위기로 검색</text>
  <rect x="140" y="226" width="256" height="132" rx="8" fill="#191715"/>
  <rect x="160" y="248" width="74" height="92" rx="8" fill="#315CFF"/>
  <text x="252" y="268" fill="#FFF6E7" font-family="Pretendard, Arial, sans-serif" font-size="17" font-weight="850">밤에 다시 찾는 작품</text>
  <text x="252" y="298" fill="#C8BDA9" font-family="Pretendard, Arial, sans-serif" font-size="13" font-weight="700">#집착남 #구원 #해피엔딩</text>
  <rect x="252" y="316" width="82" height="28" rx="8" fill="#FFB238"/>
  <text x="271" y="335" fill="#191715" font-family="Pretendard, Arial, sans-serif" font-size="12" font-weight="850">재탕 4회</text>
  <rect x="140" y="376" width="118" height="34" rx="8" fill="#E7EBFF"/>
  <text x="160" y="398" fill="#315CFF" font-family="Pretendard, Arial, sans-serif" font-size="13" font-weight="850">관계성</text>
  <rect x="270" y="376" width="126" height="34" rx="8" fill="#FFF0C7"/>
  <text x="292" y="398" fill="#8A5B00" font-family="Pretendard, Arial, sans-serif" font-size="13" font-weight="850">분위기</text>
  <rect x="140" y="430" width="256" height="92" rx="8" fill="#FFFDF7" stroke="#D8CFBD"/>
  <text x="160" y="460" fill="#191715" font-family="Pretendard, Arial, sans-serif" font-size="16" font-weight="850">RIDI 링크 자동 채우기</text>
  <text x="160" y="490" fill="#655F54" font-family="Pretendard, Arial, sans-serif" font-size="13" font-weight="700">제목 · 작가 · 표지 · 장르 후보</text>
  <rect x="140" y="546" width="256" height="82" rx="8" fill="#F1E8D7"/>
  <text x="160" y="576" fill="#191715" font-family="Pretendard, Arial, sans-serif" font-size="16" font-weight="850">JSON 백업</text>
  <text x="160" y="604" fill="#655F54" font-family="Pretendard, Arial, sans-serif" font-size="13" font-weight="700">localStorage 기반 export/import</text>

  <rect x="520" y="74" width="590" height="178" rx="8" fill="#FFFDF7" stroke="#D8CFBD"/>
  <text x="556" y="122" fill="#191715" font-family="Pretendard, Arial, sans-serif" font-size="26" font-weight="850">기억 단서 중심의 재탐색</text>
  <text x="556" y="160" fill="#655F54" font-family="Pretendard, Arial, sans-serif" font-size="17" font-weight="700">제목이 기억나지 않아도 인물, 관계성, 장면, 엔딩감으로 다시 찾습니다.</text>
  <rect x="556" y="190" width="112" height="34" rx="8" fill="#315CFF"/>
  <text x="584" y="212" fill="#FFFFFF" font-family="Pretendard, Arial, sans-serif" font-size="14" font-weight="850">인물명</text>
  <rect x="682" y="190" width="112" height="34" rx="8" fill="#FFB238"/>
  <text x="710" y="212" fill="#191715" font-family="Pretendard, Arial, sans-serif" font-size="14" font-weight="850">장면</text>
  <rect x="808" y="190" width="112" height="34" rx="8" fill="#FF6A4A"/>
  <text x="836" y="212" fill="#FFFFFF" font-family="Pretendard, Arial, sans-serif" font-size="14" font-weight="850">관계성</text>
  <rect x="934" y="190" width="112" height="34" rx="8" fill="#2F6F55"/>
  <text x="962" y="212" fill="#FFFFFF" font-family="Pretendard, Arial, sans-serif" font-size="14" font-weight="850">엔딩감</text>

  <rect x="520" y="284" width="270" height="356" rx="8" fill="#191715"/>
  <text x="552" y="328" fill="#FFF6E7" font-family="Pretendard, Arial, sans-serif" font-size="22" font-weight="850">Record Detail</text>
  <text x="552" y="368" fill="#C8BDA9" font-family="Pretendard, Arial, sans-serif" font-size="15" font-weight="700">주인공 · 상대역 · 권수/회차</text>
  <text x="552" y="408" fill="#C8BDA9" font-family="Pretendard, Arial, sans-serif" font-size="15" font-weight="700">요약 · 스포 메모 · 재탕 횟수</text>
  <text x="552" y="448" fill="#C8BDA9" font-family="Pretendard, Arial, sans-serif" font-size="15" font-weight="700">RIDI 링크와 표지 URL</text>
  <rect x="552" y="502" width="206" height="48" rx="8" fill="#315CFF"/>
  <text x="620" y="532" fill="#FFFFFF" font-family="Pretendard, Arial, sans-serif" font-size="16" font-weight="850">수정 저장</text>

  <rect x="820" y="284" width="290" height="356" rx="8" fill="#FFFDF7" stroke="#D8CFBD"/>
  <text x="852" y="328" fill="#191715" font-family="Pretendard, Arial, sans-serif" font-size="22" font-weight="850">Local-first Flow</text>
  <circle cx="866" cy="382" r="8" fill="#315CFF"/>
  <text x="890" y="388" fill="#655F54" font-family="Pretendard, Arial, sans-serif" font-size="15" font-weight="800">브라우저에 즉시 저장</text>
  <circle cx="866" cy="430" r="8" fill="#FFB238"/>
  <text x="890" y="436" fill="#655F54" font-family="Pretendard, Arial, sans-serif" font-size="15" font-weight="800">태그/검색으로 재탐색</text>
  <circle cx="866" cy="478" r="8" fill="#FF6A4A"/>
  <text x="890" y="484" fill="#655F54" font-family="Pretendard, Arial, sans-serif" font-size="15" font-weight="800">JSON으로 백업/복구</text>
  <circle cx="866" cy="526" r="8" fill="#2F6F55"/>
  <text x="890" y="532" fill="#655F54" font-family="Pretendard, Arial, sans-serif" font-size="15" font-weight="800">PWA처럼 모바일 접근</text>
</svg>
