<svg xmlns="http://www.w3.org/2000/svg" viewBox="0 0 96 96" role="img" aria-labelledby="title desc">
  <title id="title">eundo.today brand mark</title>
  <desc id="desc">Minimal eundo.today pastel brand mark</desc>
  <rect x="5" y="5" width="86" height="86" rx="18" fill="#FFFFFF" stroke="#10131D" stroke-width="5"/>
  <path d="M26 51c0-14 9.7-24 24.1-24 13.1 0 22.3 8.9 22.3 21.7 0 2.7-.3 4.6-.8 6H40.2c1.8 6.1 7 9.4 14.2 9.4 5 0 9.1-1.4 12.9-4.1l5.2 9.7c-5.5 4-11.7 6-18.8 6C37.2 75.7 26 66 26 51Zm14.4-5.9h19.2c-.7-4.9-4.1-8-9.3-8-5 0-8.6 2.9-9.9 8Z" fill="#10131D"/>
  <circle cx="72" cy="72" r="8" fill="#7657F6"/>
  <circle cx="24" cy="25" r="7" fill="#BFF7E5"/>
  <path d="M64 18h14v14H64z" fill="#FFE58A"/>
</svg>
