<svg xmlns="http://www.w3.org/2000/svg" viewBox="0 0 1200 630" role="img" aria-labelledby="title desc">
  <title id="title">eundo.today portfolio</title>
  <desc id="desc">Pastel social preview image for Eundo Park's developer portfolio</desc>
  <defs>
    <linearGradient id="bg" x1="0" x2="1" y1="0" y2="1">
      <stop offset="0" stop-color="#F1E7FF"/>
      <stop offset="0.46" stop-color="#E2FFF5"/>
      <stop offset="1" stop-color="#FFF2BF"/>
    </linearGradient>
    <linearGradient id="card" x1="0" x2="1" y1="0" y2="1">
      <stop offset="0" stop-color="#FFFFFF" stop-opacity="0.94"/>
      <stop offset="1" stop-color="#FFFFFF" stop-opacity="0.72"/>
    </linearGradient>
  </defs>
  <rect width="1200" height="630" fill="url(#bg)"/>
  <path d="M0 96h1200M0 216h1200M0 336h1200M0 456h1200M120 0v630M240 0v630M360 0v630M480 0v630M600 0v630M720 0v630M840 0v630M960 0v630M1080 0v630" stroke="#10131D" stroke-opacity="0.06"/>
  <rect x="72" y="72" width="1056" height="486" rx="8" fill="url(#card)" stroke="#10131D" stroke-opacity="0.12"/>
  <rect x="96" y="96" width="112" height="112" rx="18" fill="#FFFFFF" stroke="#10131D" stroke-width="5"/>
  <text x="126" y="171" fill="#10131D" font-family="Pretendard, Arial, sans-serif" font-size="74" font-weight="900">e</text>
  <circle cx="184" cy="184" r="10" fill="#7657F6"/>
  <circle cx="118" cy="118" r="8" fill="#BFF7E5"/>
  <rect x="166" y="112" width="18" height="18" rx="2" fill="#FFE58A"/>
  <text x="96" y="304" fill="#7657F6" font-family="Pretendard, Arial, sans-serif" font-size="28" font-weight="900" letter-spacing="5">SOFTWARE ENGINEER</text>
  <text x="96" y="398" fill="#10131D" font-family="Pretendard, Arial, sans-serif" font-size="82" font-weight="900">박은도</text>
  <text x="96" y="464" fill="#5D6575" font-family="Pretendard, Arial, sans-serif" font-size="32" font-weight="600">Finance systems · Product experiments · Dev stories</text>
  <rect x="740" y="144" width="286" height="216" rx="8" fill="#FFFFFF" stroke="#10131D" stroke-opacity="0.12"/>
  <rect x="766" y="176" width="118" height="24" rx="8" fill="#F1E7FF"/>
  <rect x="766" y="222" width="210" height="18" rx="8" fill="#E2FFF5"/>
  <rect x="766" y="256" width="174" height="18" rx="8" fill="#FFF2BF"/>
  <rect x="766" y="306" width="64" height="28" rx="8" fill="#10131D"/>
  <rect x="866" y="306" width="64" height="28" rx="8" fill="#7657F6"/>
  <rect x="640" y="388" width="164" height="84" rx="8" fill="#F1E7FF" stroke="#10131D" stroke-opacity="0.12"/>
  <rect x="828" y="388" width="164" height="84" rx="8" fill="#E2FFF5" stroke="#10131D" stroke-opacity="0.12"/>
  <rect x="1016" y="388" width="64" height="84" rx="8" fill="#FFF2BF" stroke="#10131D" stroke-opacity="0.12"/>
</svg>
